<svg width="159" height="80" viewBox="0 0 159 80" fill="none" xmlns="http://www.w3.org/2000/svg">
<path d="M13.388 21.074L5.2 21.074L5.19999 34L0.139994 34L0.14 1.156L15.366 1.156C18.9847 1.156 21.7907 2.06067 23.784 3.87C25.7773 5.64867 26.774 8.07134 26.774 11.138C26.774 13.6527 26.0993 15.7533 24.75 17.44C23.4007 19.096 21.4687 20.1847 18.954 20.706L27.234 34L21.346 34L13.388 21.074ZM14.768 16.842C16.976 16.842 18.6627 16.3513 19.828 15.37C21.024 14.3887 21.622 12.978 21.622 11.138C21.622 9.298 21.024 7.88734 19.828 6.906C18.6627 5.894 16.976 5.388 14.768 5.388L5.2 5.388L5.2 16.842L14.768 16.842ZM46.1209 30.78C45.2316 32.068 44.1429 33.0187 42.8549 33.632C41.5669 34.2453 40.1409 34.552 38.5769 34.552C36.1543 34.552 34.1149 33.816 32.4589 32.344C30.8029 30.872 29.9749 28.6947 29.9749 25.812L29.975 9.71201L34.667 9.71201L34.6669 24.386C34.6669 26.6247 35.1116 28.2193 36.0009 29.17C36.8903 30.1207 38.2396 30.596 40.0489 30.596C41.0916 30.596 42.0729 30.3047 42.9929 29.722C43.9129 29.1393 44.6489 28.2807 45.201 27.146C45.7836 26.0113 46.075 24.6467 46.075 23.052L46.075 9.71201L50.767 9.71201L50.7669 34L46.3049 34L46.3049 30.78L46.1209 30.78ZM74.4753 30.32C74.8739 30.32 75.2419 30.2587 75.5793 30.136L75.5793 34C75.1193 34.1533 74.3066 34.23 73.1413 34.23C70.7186 34.23 69.2926 33.2487 68.8633 31.286L68.6793 31.286C67.8819 32.39 66.7626 33.218 65.3213 33.77C63.9106 34.2913 62.4386 34.552 60.9053 34.552C59.4946 34.552 58.1913 34.2607 56.9953 33.678C55.7993 33.0647 54.8486 32.2213 54.1433 31.148C53.4379 30.044 53.0853 28.756 53.0853 27.284C53.0853 24.7693 53.8979 22.9293 55.5233 21.764C57.1793 20.5987 59.6939 19.832 63.0673 19.464C65.2139 19.2493 66.6706 18.9273 67.4373 18.498C68.2346 18.0687 68.6333 17.4553 68.6333 16.658C68.6333 14.2353 67.0386 13.024 63.8493 13.024C62.5613 13.024 61.4113 13.3767 60.3993 14.082C59.3873 14.7567 58.6819 15.7687 58.2833 17.118L53.9593 16.106C54.4806 13.9593 55.6459 12.2727 57.4553 11.046C59.2646 9.78868 61.4419 9.16001 63.9873 9.16001C67.2379 9.16001 69.5993 9.85001 71.0713 11.23C72.5739 12.5793 73.3253 14.358 73.3253 16.566L73.3253 28.894C73.3253 29.8447 73.7086 30.32 74.4753 30.32ZM68.6333 21.534C68.2959 21.902 67.6059 22.2087 66.5633 22.454C65.5206 22.6687 64.1866 22.8833 62.5613 23.098C61.2119 23.282 60.0926 23.7113 59.2033 24.386C58.3446 25.0607 57.9153 26.0267 57.9153 27.284C57.9153 28.4187 58.2526 29.2927 58.9273 29.906C59.6326 30.5193 60.5833 30.826 61.7793 30.826C62.8833 30.826 63.9566 30.596 64.9993 30.136C66.0419 29.676 66.9006 28.9707 67.5753 28.02C68.2806 27.0693 68.6333 25.8733 68.6333 24.432L68.6333 21.534ZM82.1835 13.392L82.3675 13.392C83.0115 12.1347 83.9622 11.1227 85.2195 10.356C86.4769 9.55868 87.9335 9.16002 89.5895 9.16002C90.3562 9.16002 91.0769 9.23668 91.7515 9.39002L91.7515 13.898C90.8928 13.7753 90.0955 13.714 89.3595 13.714C87.2128 13.714 85.5108 14.312 84.2535 15.508C83.0268 16.6733 82.4135 18.544 82.4135 21.12L82.4135 34L77.7215 34L77.7215 9.71201L82.1835 9.71202L82.1835 13.392ZM98.5175 9.71202L98.5175 34L93.8255 34L93.8255 9.71202L98.5175 9.71202ZM98.5175 0.696016L98.5175 5.80202L93.8255 5.80202L93.8255 0.696015L98.5175 0.696016ZM12.652 37.156C15.8107 37.156 18.5553 37.7847 20.886 39.042C23.2167 40.2687 25.026 42.1087 26.314 44.562C27.602 47.0153 28.246 50.0207 28.246 53.578C28.246 57.1353 27.602 60.1407 26.314 62.594C25.026 65.0473 23.2167 66.9027 20.886 68.16C18.5553 69.3867 15.8107 70 12.652 70L0.139988 70L0.139993 37.156L12.652 37.156ZM12.008 65.768C15.5653 65.768 18.2947 64.7253 20.196 62.64C22.128 60.5547 23.094 57.534 23.094 53.578C23.094 49.622 22.128 46.6013 20.196 44.516C18.2947 42.4307 15.5653 41.388 12.008 41.388L5.19999 41.388L5.19999 65.768L12.008 65.768ZM42.4011 45.16C44.7317 45.16 46.7864 45.6967 48.5651 46.77C50.3437 47.8127 51.7084 49.3 52.6591 51.232C53.6404 53.1333 54.1311 55.3413 54.1311 57.856C54.1311 60.3707 53.6404 62.594 52.6591 64.526C51.7084 66.4273 50.3437 67.9147 48.5651 68.988C46.7864 70.0307 44.7317 70.552 42.4011 70.552C40.0397 70.552 37.9697 70.0307 36.1911 68.988C34.4124 67.9147 33.0324 66.4273 32.0511 64.526C31.1004 62.594 30.6251 60.3707 30.6251 57.856C30.6251 55.3413 31.1004 53.1333 32.0511 51.232C33.0324 49.3 34.4124 47.8127 36.1911 46.77C37.9697 45.6967 40.0397 45.16 42.4011 45.16ZM42.4011 66.734C44.5171 66.734 46.2037 65.952 47.4611 64.388C48.7184 62.7933 49.3471 60.616 49.3471 57.856C49.3471 55.096 48.7184 52.934 47.4611 51.37C46.2037 49.7753 44.5171 48.978 42.4011 48.978C40.2237 48.978 38.5064 49.7753 37.2491 51.37C36.0224 52.934 35.4091 55.096 35.4091 57.856C35.4091 60.616 36.0224 62.7933 37.2491 64.388C38.5064 65.952 40.2237 66.734 42.4011 66.734ZM73.234 66.78C72.3447 68.068 71.256 69.0187 69.968 69.632C68.68 70.2453 67.254 70.552 65.69 70.552C63.2673 70.552 61.228 69.816 59.572 68.344C57.916 66.872 57.088 64.6947 57.088 61.812L57.088 45.712L61.78 45.712L61.78 60.386C61.78 62.6247 62.2247 64.2193 63.114 65.17C64.0033 66.1207 65.3527 66.596 67.162 66.596C68.2047 66.596 69.186 66.3047 70.106 65.722C71.026 65.1393 71.762 64.2807 72.314 63.146C72.8967 62.0113 73.188 60.6467 73.188 59.052L73.188 45.712L77.88 45.712L77.88 70L73.418 70L73.418 66.78L73.234 66.78ZM103.106 68.298C103.106 71.978 102.064 74.6767 99.9783 76.394C97.9237 78.142 95.1943 79.016 91.7903 79.016C89.061 79.016 86.715 78.3873 84.7523 77.13C82.8203 75.8727 81.4863 73.9407 80.7503 71.334L85.2583 70.368C85.6877 72.0853 86.439 73.312 87.5123 74.048C88.6163 74.784 90.0423 75.152 91.7903 75.152C96.2063 75.152 98.4143 72.7907 98.4143 68.068L98.4143 65.63L98.2303 65.63C97.5557 66.5807 96.605 67.332 95.3783 67.884C94.1517 68.436 92.741 68.712 91.1463 68.712C89.061 68.712 87.2057 68.2213 85.5803 67.24C83.955 66.2587 82.6823 64.8787 81.7623 63.1C80.8423 61.3213 80.3823 59.2667 80.3823 56.936C80.3823 54.636 80.8423 52.5967 81.7623 50.818C82.6823 49.0087 83.955 47.6133 85.5803 46.632C87.2057 45.6507 89.061 45.16 91.1463 45.16C92.8023 45.16 94.2743 45.4667 95.5623 46.08C96.8503 46.6627 97.8163 47.4753 98.4603 48.518L98.6443 48.518L98.6443 45.712L103.106 45.712L103.106 68.298ZM91.9743 64.986C93.9983 64.986 95.6237 64.25 96.8503 62.778C98.1077 61.2754 98.7363 59.328 98.7363 56.936C98.7363 54.544 98.1077 52.6274 96.8503 51.186C95.6237 49.714 93.9983 48.978 91.9743 48.978C89.889 48.978 88.233 49.714 87.0063 51.186C85.7797 52.6273 85.1663 54.544 85.1663 56.936C85.1663 59.3587 85.7797 61.306 87.0063 62.778C88.233 64.25 89.889 64.986 91.9743 64.986ZM111.302 36.696L111.302 70L106.61 70L106.61 36.696L111.302 36.696ZM135.432 66.32C135.831 66.32 136.199 66.2587 136.536 66.136L136.536 70C136.076 70.1534 135.264 70.23 134.098 70.23C131.676 70.23 130.25 69.2487 129.82 67.286L129.636 67.286C128.839 68.39 127.72 69.218 126.278 69.77C124.868 70.2914 123.396 70.552 121.862 70.552C120.452 70.552 119.148 70.2607 117.952 69.678C116.756 69.0647 115.806 68.2214 115.1 67.148C114.395 66.044 114.042 64.756 114.042 63.284C114.042 60.7694 114.855 58.9294 116.48 57.764C118.136 56.5987 120.651 55.832 124.024 55.464C126.171 55.2494 127.628 54.9274 128.394 54.498C129.192 54.0687 129.59 53.4554 129.59 52.658C129.59 50.2354 127.996 49.024 124.806 49.024C123.518 49.024 122.368 49.3767 121.356 50.082C120.344 50.7567 119.639 51.7687 119.24 53.118L114.916 52.106C115.438 49.9594 116.603 48.2727 118.412 47.046C120.222 45.7887 122.399 45.16 124.944 45.16C128.195 45.16 130.556 45.85 132.028 47.23C133.531 48.5794 134.282 50.358 134.282 52.566L134.282 64.894C134.282 65.8447 134.666 66.32 135.432 66.32ZM129.59 57.534C129.253 57.902 128.563 58.2087 127.52 58.454C126.478 58.6687 125.144 58.8834 123.518 59.098C122.169 59.282 121.05 59.7114 120.16 60.386C119.302 61.0607 118.872 62.0267 118.872 63.284C118.872 64.4187 119.21 65.2927 119.884 65.906C120.59 66.5194 121.54 66.826 122.736 66.826C123.84 66.826 124.914 66.596 125.956 66.136C126.999 65.676 127.858 64.9707 128.532 64.02C129.238 63.0694 129.59 61.8734 129.59 60.432L129.59 57.534ZM153.537 52.98C153.23 51.6 152.54 50.5574 151.467 49.852C150.424 49.116 149.228 48.748 147.879 48.748C146.407 48.748 145.241 49.0547 144.383 49.668C143.524 50.2814 143.095 51.1554 143.095 52.29C143.095 53.2407 143.493 53.9307 144.291 54.36C145.088 54.7894 146.269 55.142 147.833 55.418L150.225 55.786C152.801 56.246 154.794 56.982 156.205 57.994C157.646 58.9754 158.367 60.6314 158.367 62.962C158.367 65.3847 157.401 67.2554 155.469 68.574C153.567 69.8927 151.114 70.552 148.109 70.552C145.073 70.552 142.604 69.862 140.703 68.482C138.801 67.0714 137.636 65.2314 137.207 62.962L141.531 62.042C142.267 65.354 144.49 67.01 148.201 67.01C149.795 67.01 151.083 66.6727 152.065 65.998C153.077 65.2927 153.583 64.3267 153.583 63.1C153.583 62.088 153.153 61.352 152.295 60.892C151.436 60.4014 150.163 60.0027 148.477 59.696L146.039 59.282C143.677 58.8834 141.791 58.1934 140.381 57.212C139.001 56.2307 138.311 54.6054 138.311 52.336C138.311 50.956 138.709 49.7294 139.507 48.656C140.335 47.552 141.469 46.6934 142.911 46.08C144.383 45.4667 146.054 45.16 147.925 45.16C149.642 45.16 151.206 45.482 152.617 46.126C154.058 46.7394 155.239 47.5827 156.159 48.656C157.079 49.6987 157.646 50.8334 157.861 52.06L153.537 52.98Z" fill="#2C2C2C"/>
</svg>
